<svg width="768" height="80" xmlns="http://www.w3.org/2000/svg" stroke="null" style="vector-effect: non-scaling-stroke;">
 <!-- Created with Method Draw - http://github.com/duopixel/Method-Draw/ -->

 <g stroke="null">
  <title stroke="null">Layer 1</title>
  <path stroke="null" style="vector-effect: non-scaling-stroke;" fill-opacity="0.5" id="svg_11" d="m-12.999933,35.931298c84.781448,-105.133631 227.366946,76.9499 385.303508,-1.365155c157.936564,-78.315056 548.549203,52.188499 548.549203,52.188499c0,0 -781.624824,4.775309 -782.430621,3.872477c0.805797,0.902832 -150.684374,-0.05223 -149.878577,-0.955063" stroke-opacity="null" stroke-width="null" fill="#9c3207"/>
  <path stroke="null" transform="rotate(-0.2560645341873169 424.1117553710948,48.979286193849404) " fill-opacity="0.75" id="svg_10" d="m-18.359523,26.842369c130.317994,-35.233022 342.768881,98.623296 492.551912,12.11552c149.783033,-86.507774 392.3907,44.853015 392.3907,44.853015c0,0 -741.273173,5.274865 -742.037373,4.277586c0.764201,0.997279 -142.905239,-0.057695 -142.14104,-1.054974" stroke-opacity="null" stroke-width="null" fill="#9c3207"/>
  <path stroke="null" style="vector-effect: non-scaling-stroke;" fill-opacity="0.9" id="svg_2" d="m-3.148643,59.484885c196.507772,16.894583 330.611386,9.514852 479.89636,-23.469811c149.284973,-32.984663 402.103637,45.191418 402.103637,45.191418c0,0 -738.808287,2.01126 -739.569945,1.631007c0.761658,0.380253 -142.430052,-0.021999 -141.668394,-0.402253" stroke-opacity="null" stroke-width="null" fill="#9c3207"/>
 </g>
</svg>